# xmcd CD database file
#
# Track frame offsets:
#	183
#	16795
#	35595
#	51720
#	65683
#	85995
#	106108
#	121420
#	135045
#	149445
#	167445
#	182718
#	197895
#	219243
#
# Disc length: 3381 seconds
#
# Revision: 0
# Processed by: cddbd v1.5.1PL2 Copyright (c) Steve Scherf et al.
# Submitted via: Feurio! 1.68 - http://www.feurio.com
#
DISCID=c20d330e
DTITLE=Poorboys - Bayou Bound
DYEAR=1993
DGENRE=Cajun
TTITLE0=Going Up The Country
TTITLE1=Wolfman Moan
TTITLE2=Bayou Pon Pon
TTITLE3=The Honeydripper
TTITLE4=Steady Rock
TTITLE5=Hey Pocked Way
TTITLE6=Heading For The Rock
TTITLE7=Waiting For The Station
TTITLE8=Down On Main Street
TTITLE9=If It's Good For The Gander
TTITLE10=Mind Over Matter
TTITLE11=Donnez-Moi Un 'Tite Pecule
TTITLE12=Zombie Fais Do Do
TTITLE13=Bring It On Home
EXTD=
EXTT0=
EXTT1=
EXTT2=
EXTT3=
EXTT4=
EXTT5=
EXTT6=
EXTT7=
EXTT8=
EXTT9=
EXTT10=
EXTT11=
EXTT12=
EXTT13=
PLAYORDER=
